PathFileType	4	(X/Y/Z)	OpenSim_Sub04_EMGStiffKnee_Magnet.trc
DataRate	CameraRate	NumFrames	NumMarkers	Units	OrigDataRate	OrigDataStartFrame	OrigNumFrames
100	100	13	8	m	100	1035	8277
Frame#	Time	torso_imu_offset_imu	pelvis_imu_offset_imu	tibia_r_imu_offset_imu	femur_r_imu_offset_imu	tibia_l_imu_offset_imu	femur_l_imu_offset_imu	toes_r_imu_offset_imu	toes_l_imu_offset_imu
				X1	Y1	Z1	X2	Y2	Z2	X3	Y3	Z3	X4	Y4	Z4	X5	Y5	Z5	X6	Y6	Z6	X7	Y7	Z7	X8		Y8	Z8	

1035	10.34000000	0.92223856	0.22010769	-0.11589876	-0.59118563	0.15125570	-0.69332131	-0.39521092	-0.70678499	-0.07127008	-0.86104995	0.02061708	-0.00292510	-0.54030558	0.52460849	0.33087673	-0.59755175	0.31661888	0.47843614	-0.75931640	-0.20335609	-0.17607927	-0.67684843	-0.36157966	-0.32131615
1036	10.35000000	0.91959070	0.21240425	-0.11683908	-0.59041534	0.14768812	-0.69819372	-0.42462863	-0.68524550	-0.07531636	-0.85806834	0.02580748	-0.00354944	-0.54049459	0.53660684	0.32918865	-0.59504016	0.32252350	0.47947133	-0.74872607	-0.19374529	-0.21311832	-0.68115465	-0.35668169	-0.32403255
1037	10.36000000	0.92060828	0.21360032	-0.11526141	-0.58716228	0.14840369	-0.70015318	-0.45440020	-0.65935041	-0.08287735	-0.85483833	0.02700112	-0.00683491	-0.53169392	0.54448076	0.32697779	-0.59064660	0.33008574	0.48136554	-0.74266568	-0.17711926	-0.24067359	-0.67949407	-0.35183058	-0.32890189
1038	10.37000000	0.91894167	0.21517660	-0.11425428	-0.58116878	0.14831548	-0.70163456	-0.48604258	-0.63587976	-0.09396762	-0.85960211	0.02359942	-0.00585655	-0.52981035	0.54657763	0.32863095	-0.58580182	0.33265728	0.47849001	-0.73520019	-0.16027755	-0.27169745	-0.68451530	-0.35034588	-0.32550714
1039	10.38000000	0.92501816	0.21252730	-0.11323886	-0.57720735	0.14059875	-0.70821583	-0.50801686	-0.61848207	-0.09951217	-0.86031885	0.02487207	-0.00639337	-0.52530395	0.55146546	0.32941692	-0.58454988	0.34279325	0.47503543	-0.72964918	-0.14518017	-0.30165686	-0.69361959	-0.34810579	-0.32243855
1040	10.39000000	0.92709781	0.20961421	-0.11073766	-0.57985043	0.14240975	-0.70552474	-0.52479937	-0.59719323	-0.11259832	-0.85921822	0.02214553	-0.00516333	-0.51884612	0.55591241	0.32947212	-0.58182704	0.35036761	0.47921614	-0.72391770	-0.12884415	-0.31916186	-0.69838446	-0.34606746	-0.32605478
1041	10.40000000	0.92631172	0.20582036	-0.10811549	-0.57818266	0.14132599	-0.70381620	-0.54787692	-0.57502102	-0.12437904	-0.85658751	0.01984768	-0.00972732	-0.51707756	0.55960389	0.32602237	-0.57510908	0.35604671	0.48428951	-0.71794203	-0.10921872	-0.34164933	-0.70452120	-0.34303176	-0.32714106
1042	10.41000000	0.92176143	0.20566124	-0.10749362	-0.57613842	0.13743890	-0.70687008	-0.56011997	-0.56134157	-0.12719053	-0.85557537	0.01934337	-0.01201639	-0.51043925	0.56758203	0.32517867	-0.56744266	0.36640644	0.47693670	-0.71315406	-0.08735595	-0.35986496	-0.70932911	-0.33743688	-0.32552660
1043	10.42000000	0.92262069	0.20914592	-0.10546291	-0.57917891	0.12916802	-0.70866298	-0.56723258	-0.55024872	-0.12873198	-0.85559974	0.01084171	-0.01117573	-0.50735907	0.57729687	0.32223984	-0.56787042	0.37803367	0.47597644	-0.70330736	-0.07288260	-0.37233408	-0.71176410	-0.33758373	-0.32457893
1044	10.43000000	0.92937945	0.20598532	-0.10166599	-0.57141158	0.12353726	-0.71092089	-0.58046371	-0.53868957	-0.12982592	-0.85486715	0.01010530	-0.01145668	-0.49982861	0.57495161	0.32626299	-0.56085615	0.38531151	0.47239891	-0.70170339	-0.05888840	-0.38096409	-0.71888399	-0.33493209	-0.31594470
1045	10.44000000	0.92541353	0.19728894	-0.09895626	-0.56861851	0.12402706	-0.71257696	-0.59086182	-0.52717200	-0.13330622	-0.85728528	0.00806222	-0.01108205	-0.49436363	0.58480995	0.32439922	-0.55839524	0.39123467	0.46743590	-0.70005273	-0.04953366	-0.39213879	-0.72868019	-0.33318589	-0.31282654
1046	10.45000000	0.92460094	0.19980493	-0.09930934	-0.56842263	0.11930702	-0.71715150	-0.59478626	-0.51619856	-0.14068995	-0.85289225	0.00424621	-0.01159810	-0.49152525	0.60033609	0.31861428	-0.55642251	0.40060955	0.47145609	-0.69602246	-0.05218120	-0.40076036	-0.73547489	-0.33034170	-0.30573577
1047	10.46000000	0.92552859	0.20273996	-0.10030164	-0.56363573	0.11236763	-0.71648453	-0.60326588	-0.50917115	-0.13440909	-0.85031736	0.00306144	-0.00862716	-0.48197862	0.60542917	0.32030181	-0.54831221	0.40870064	0.46342034	-0.69557431	-0.05527903	-0.39773401	-0.73945213	-0.33089018	-0.29720776
